<svg xmlns="http://www.w3.org/2000/svg" viewBox="0 0 199.02 38.81"><defs><style>.cls-1{fill:#f39200;}</style></defs><g id="Warstwa_1" data-name="Warstwa 1"><path class="cls-1" d="M31.31,48.14c1.14-8.09,7.57-13.79,14.89-13.42,7,.35,11.13,6,10,13.63C55,56.41,48.6,62,41.32,61.66,34.42,61.3,30.23,55.73,31.31,48.14Zm19.55.11c.82-4.74-1.76-8.26-5.63-8.33s-7.75,3.47-8.55,8.24,1.64,8.18,5.59,8.26S50.05,52.88,50.86,48.25Z" transform="translate(-0.56 -23.14)"/><path class="cls-1" d="M68.27,50.73l5.09,10.35h-6L61.92,48.93,59.57,61.08H54.2l5-26H66.9c4.08,0,8.2,2.87,7.33,8.41A8.75,8.75,0,0,1,68.27,50.73ZM66,40.28H63.6L62.32,46.8l2.4,0A4,4,0,0,0,69,43.56,2.81,2.81,0,0,0,66,40.28Z" transform="translate(-0.56 -23.14)"/><path class="cls-1" d="M77.93,35.1H83.3l-5,26H72.89Z" transform="translate(-0.56 -23.14)"/><path class="cls-1" d="M92.06,40.28H83l1-5.18h17.53L88.35,55.89h9.11l-1,5.19H78.91Z" transform="translate(-0.56 -23.14)"/><path class="cls-1" d="M97.72,48.14c1.15-8.09,7.58-13.79,14.89-13.42,7,.35,11.14,6,10,13.63C121.46,56.41,115,62,107.73,61.66,100.83,61.3,96.65,55.73,97.72,48.14Zm19.55.11c.82-4.74-1.76-8.26-5.62-8.33s-7.75,3.47-8.56,8.24,1.64,8.18,5.59,8.26S116.46,52.88,117.27,48.25Z" transform="translate(-0.56 -23.14)"/><path class="cls-1" d="M145.69,35l-5.16,26.52h-.46L128.74,46.62l-2.81,14.49h-5.35l5.16-26.49h.48l11.3,14.89L140.34,35Z" transform="translate(-0.56 -23.14)"/><path class="cls-1" d="M150.74,47.16,146.23,35.1h5.61l2.69,8,5.78-8h6.59L157.06,48l4.77,13.07h-5.62l-3-8.86-6.41,8.86h-6.58Z" transform="translate(-0.56 -23.14)"/></g><g id="Warstwa_3" data-name="Warstwa 3"><path class="cls-1" d="M35.48,24.17,28.15,62H20.34l2.93-15.14h-12L8.37,62H.56L7.9,24.17h7.8L12.77,39.29h12l2.93-15.12Z" transform="translate(-0.56 -23.14)"/></g><g id="Warstwa_2" data-name="Warstwa 2"><path class="cls-1" d="M176.07,40.67l-6.56-17.53h8.16l3.91,11.65L190,23.14h9.59L185.26,41.92l6.94,19H184L179.7,48l-9.32,12.89h-9.57Z" transform="translate(-0.56 -23.14)"/></g></svg>